<svg width="1024" height="1024" viewBox="0 0 1024 1024" fill="none" xmlns="http://www.w3.org/2000/svg">
  <rect width="1024" height="1024" rx="224" fill="#242D28"/>
  <path d="M300 240C277.909 240 260 257.909 260 280V744C260 766.091 277.909 784 300 784H420V540H540C660 540 740 460 740 360C740 260 660 180 540 180H340C317.909 180 300 197.909 300 220V240Z" fill="#7BE899"/>
  <path d="M540 540C540 540 680 720 780 784H640C580 720 540 640 540 540Z" fill="#7BE899"/>
  <path d="M540 540L740 784H860L620 540H540Z" fill="#7BE899"/>
  <circle cx="780" cy="260" r="54" fill="#E8C47B"/>
</svg>
